<?xml version="1.0" encoding="UTF-8" standalone="no"?>
<!-- Created with Inkscape (http://www.inkscape.org/) -->

<svg
   width="1080"
   height="1080"
   viewBox="0 0 285.74999 285.75"
   version="1.1"
   id="svg1"
   xml:space="preserve"
   inkscape:version="1.3.2 (091e20ef0f, 2023-11-25)"
   sodipodi:docname="picture.svg"
   xmlns:inkscape="http://www.inkscape.org/namespaces/inkscape"
   xmlns:sodipodi="http://sodipodi.sourceforge.net/DTD/sodipodi-0.dtd"
   xmlns="http://www.w3.org/2000/svg"
   xmlns:svg="http://www.w3.org/2000/svg"><sodipodi:namedview
     id="namedview1"
     pagecolor="#000000"
     bordercolor="#000000"
     borderopacity="0.25"
     inkscape:showpageshadow="2"
     inkscape:pageopacity="0.0"
     inkscape:pagecheckerboard="0"
     inkscape:deskcolor="#d1d1d1"
     inkscape:document-units="mm"
     inkscape:zoom="0.39868771"
     inkscape:cx="565.60559"
     inkscape:cy="541.77742"
     inkscape:window-width="1280"
     inkscape:window-height="728"
     inkscape:window-x="0"
     inkscape:window-y="0"
     inkscape:window-maximized="1"
     inkscape:current-layer="layer1" /><defs
     id="defs1" /><g
     inkscape:label="Layer 1"
     inkscape:groupmode="layer"
     id="layer1"><circle
       style="display:none;fill:#f9f9f9;fill-opacity:1;stroke-width:0.25537"
       id="path12"
       cx="142.875"
       cy="142.875"
       r="137.89999" /><g
       id="g11"
       inkscape:label="box_crab"
       transform="matrix(0.79111111,0,0,0.79111111,27.477445,33.31256)"
       style="display:inline"><path
         style="display:inline;fill:#ed452a;fill-opacity:1;stroke-width:0.671607"
         d="m 106.75964,179.55925 c 0,0 -14.339571,11.03006 -18.749036,19.86835 -4.409428,8.83823 -5.914198,10.68649 -5.914198,10.68649 0,0 1.301626,1.47156 0.07845,2.75179 -1.22326,1.28021 -2.082047,2.39641 -2.082047,2.39641 0,0 3.411865,5.44326 5.493348,8.43467 2.081527,2.99147 5.728104,8.0106 8.93792,11.16238 3.209808,3.15178 6.073603,10.32677 6.073603,10.32677 0,0 1.61147,-0.64562 3.59804,-0.17717 1.98655,0.46845 4.55598,4.00266 6.66176,5.12726 2.10577,1.12467 4.26532,3.59493 6.95027,4.16781 2.68497,0.5728 2.90546,0.65723 2.90546,0.65723 0,0 -5.66582,1.12989 -8.60978,0.37502 -2.94397,-0.75481 -8.07019,-1.19318 -11.43666,-2.75931 -3.366498,-1.5661 -5.441658,-3.9082 -5.441658,-3.9082 0,0 -14.483998,-10.01033 -19.24993,-15.21406 -4.765931,-5.20377 -3.650797,-2.7029 -5.261779,-5.67112 -1.610969,-2.96824 -3.643417,-5.44111 -3.643417,-5.44111 0,0 -2.674404,0.24216 -3.220895,-1.99977 -0.54649,-2.24182 0.388237,-7.11589 1.144141,-8.44626 0.755907,-1.33034 1.723864,-3.23567 1.723864,-3.23567 l -1.989725,-0.73583 c 0,0 1.114078,-4.10077 3.391809,-8.17836 2.277732,-4.07754 4.905189,-6.93812 9.087703,-11.42767 4.182527,-4.48949 15.491522,-13.64047 15.491522,-13.64047 l -1.345118,-0.64624 c 0,0 -3.691944,-3.09745 -6.82844,-2.2329 -3.136505,0.86456 -11.295277,5.3161 -11.295277,5.3161 0,0 -11.554292,5.19585 -14.459733,7.49947 -2.905456,2.30353 -7.387593,6.72451 -8.422551,8.50374 -1.034945,1.77922 -1.392579,4.22051 -1.392579,4.22051 l -3.476211,2.60317 c 0,0 3.356455,17.16527 5.762379,21.81415 2.405911,4.6488 4.086509,9.47112 3.872356,10.48447 -0.214166,1.0133 -0.05545,2.58897 -0.05545,2.58897 0,0 2.1754,-0.0919 4.16617,1.88841 1.990769,1.98025 3.895024,6.08257 5.349335,7.6218 1.454312,1.53926 5.884763,5.68745 5.884763,5.68745 0,0 -9.976024,-2.61639 -12.45526,-4.44832 -2.479223,-1.83201 -7.680338,-6.24508 -7.941979,-7.35753 -0.26164,-1.11252 -0.37506,-2.28829 -0.37506,-2.28829 0,0 -5.288144,-5.02074 -6.941848,-8.29228 -1.653701,-3.27155 -9.727559,-15.48465 -10.136898,-17.82829 -0.409339,-2.3437 -1.698014,-1.61628 -1.872616,-4.16357 -0.174589,-2.54726 0.47633,-3.71936 0.47633,-3.71936 0,0 -2.509299,0.43413 -2.618489,-2.2466 -0.109195,-2.68071 2.044574,-6.76932 3.056311,-7.66297 1.011736,-0.89357 2.709748,-2.71813 2.709748,-2.71813 l -1.887909,-1.70702 c 0,0 7.566412,-7.73517 10.326794,-9.54872 2.760403,-1.81354 10.888069,-6.20868 13.303473,-7.29949 2.415404,-1.09089 4.116055,-2.26769 4.116055,-2.26769 0,0 6.826857,-3.55536 10.265613,-4.90099 3.438732,-1.34563 11.102223,-4.03696 11.102223,-4.03696 0,0 -8.404609,-5.41371 -13.287644,-5.00859 -4.883035,0.40512 -16.719535,2.40542 -21.639497,3.05212 -4.919955,0.64671 -8.517136,1.78104 -9.345121,2.00287 -0.827985,0.22185 -1.391014,1.28182 -1.391014,1.28182 0,0 -1.332456,1.1236 -2.485036,0.92207 -1.15258,-0.20155 -2.884876,-0.0409 -2.884876,-0.0409 0,0 -4.502184,9.44429 -6.40012,14.22291 -1.897928,4.77856 -2.484503,12.02002 -3.39971,14.12685 -0.915205,2.10684 -2.892263,5.02598 -2.892263,5.02598 0,0 1.790848,1.50286 2.171704,3.59699 0.380847,2.09421 0.200961,6.87278 0.200961,6.87278 l -0.147173,7.74786 0.846637,2.8891 c 0,0 -6.432298,-7.28262 -7.277345,-10.9672 -0.84505,-3.68458 -2.404328,-8.78013 -2.185948,-10.5267 0.218374,-1.74652 0.784914,-4.14928 0.784914,-4.14928 0,0 -0.215229,-8.85984 -0.215229,-12.27013 0,-3.41021 0.775949,-12.91628 1.919563,-16.76378 1.143612,-3.84758 3.053678,-7.39131 3.053678,-7.39131 0,0 -0.656737,-0.3898 -0.219441,-1.8505 0.437298,-1.4606 1.427408,-3.12114 4.324945,-4.40723 2.897537,-1.28597 5.296063,-2.11098 6.193337,-2.11098 0.897275,0 1.005935,0 1.005935,0 l -1.06343,-1.45906 c 0,0 1.308189,-1.06611 3.492553,-1.34564 2.184363,-0.2796 3.768436,-0.77067 7.813804,-0.59875 4.045371,0.1721 10.892798,-0.0604 16.218937,0.75852 5.326127,0.81922 10.37164,1.88688 13.565629,2.915 3.193988,1.02808 22.033001,3.46037 22.033001,3.46037 l 20.083922,25.83676 z"
         id="path7"
         inkscape:label="leg_left" /><path
         style="display:inline;fill:#ed452a;fill-opacity:1;stroke-width:0.671607"
         d="m 167.32228,184.73478 c 0,0 14.33957,11.03007 18.74904,19.86835 4.40943,8.83823 5.9142,10.68649 5.9142,10.68649 0,0 -1.30163,1.47157 -0.0785,2.75179 1.22326,1.28022 2.08205,2.39642 2.08205,2.39642 0,0 -3.41187,5.44325 -5.49334,8.43466 -2.08154,2.99147 -5.72811,8.0106 -8.93793,11.16238 -3.2098,3.15179 -6.0736,10.32678 -6.0736,10.32678 0,0 -1.61147,-0.64563 -3.59804,-0.17717 -1.98655,0.46845 -4.55599,4.00265 -6.66176,5.12726 -2.10577,1.12466 -4.26533,3.59492 -6.95028,4.1678 -2.68497,0.57281 -2.90546,0.65723 -2.90546,0.65723 0,0 5.66583,1.1299 8.60979,0.37502 2.94396,-0.7548 8.07018,-1.19318 11.43666,-2.7593 3.3665,-1.56611 5.44166,-3.9082 5.44166,-3.9082 0,0 14.484,-10.01034 19.24992,-15.21406 4.76594,-5.20377 3.6508,-2.7029 5.26179,-5.67113 1.61097,-2.96824 3.64341,-5.44111 3.64341,-5.44111 0,0 2.67441,0.24217 3.2209,-1.99977 0.54649,-2.24183 -0.38824,-7.11588 -1.14415,-8.44626 -0.7559,-1.33033 -1.72385,-3.23567 -1.72385,-3.23567 l 1.98972,-0.73582 c 0,0 -1.11408,-4.10077 -3.39181,-8.17837 -2.27773,-4.07754 -4.90519,-6.93812 -9.0877,-11.42767 -4.18253,-4.48949 -15.49152,-13.64047 -15.49152,-13.64047 l 1.34512,-0.64624 c 0,0 3.69194,-3.09745 6.82844,-2.2329 3.1365,0.86457 11.29527,5.31611 11.29527,5.31611 0,0 11.55429,5.19585 14.45974,7.49946 2.90545,2.30353 7.38759,6.72452 8.42254,8.50375 1.03495,1.77922 1.39259,4.22051 1.39259,4.22051 l 3.47621,2.60316 c 0,0 -3.35645,17.16527 -5.76238,21.81415 -2.40591,4.6488 -4.08651,9.47112 -3.87236,10.48447 0.21417,1.0133 0.0554,2.58897 0.0554,2.58897 0,0 -2.1754,-0.0919 -4.16617,1.88842 -1.99077,1.98024 -3.89503,6.08257 -5.34933,7.62179 -1.45432,1.53927 -5.88477,5.68746 -5.88477,5.68746 0,0 9.97603,-2.61639 12.45526,-4.44833 2.47922,-1.83201 7.68034,-6.24508 7.94198,-7.35753 0.26164,-1.11252 0.37506,-2.28828 0.37506,-2.28828 0,0 5.28814,-5.02074 6.94185,-8.29228 1.65371,-3.27155 9.72756,-15.48466 10.13689,-17.8283 0.40935,-2.3437 1.69801,-1.61628 1.87262,-4.16356 0.17459,-2.54728 -0.47633,-3.71936 -0.47633,-3.71936 0,0 2.5093,0.43412 2.61849,-2.2466 0.10913,-2.68072 -2.04458,-6.76933 -3.05632,-7.66298 -1.01173,-0.89356 -2.70974,-2.71813 -2.70974,-2.71813 l 1.88791,-1.70701 c 0,0 -7.56642,-7.73517 -10.3268,-9.54873 -2.7604,-1.81354 -10.88806,-6.20867 -13.30347,-7.29949 -2.4154,-1.09088 -4.11605,-2.26769 -4.11605,-2.26769 0,0 -6.82686,-3.55535 -10.26561,-4.90099 -3.43873,-1.34563 -11.10222,-4.03696 -11.10222,-4.03696 0,0 8.40461,-5.41371 13.28763,-5.00858 4.88304,0.40512 16.71954,2.40542 21.6395,3.05211 4.91995,0.64671 8.51714,1.78105 9.34512,2.00288 0.82799,0.22185 1.39103,1.28181 1.39103,1.28181 0,0 1.33245,1.12361 2.48502,0.92207 1.15258,-0.20155 2.88488,-0.0408 2.88488,-0.0408 0,0 4.50217,9.44429 6.40012,14.22291 1.89793,4.77856 2.4845,12.02002 3.39971,14.12685 0.91521,2.10685 2.89226,5.02598 2.89226,5.02598 0,0 -1.79084,1.50287 -2.1717,3.59698 -0.38085,2.09422 -0.20097,6.87279 -0.20097,6.87279 l 0.14718,7.74787 -0.84664,2.8891 c 0,0 6.4323,-7.28263 7.27736,-10.96721 0.84504,-3.68458 2.40432,-8.78013 2.18593,-10.5267 -0.21836,-1.74652 -0.78491,-4.14929 -0.78491,-4.14929 0,0 0.21524,-8.85983 0.21524,-12.27012 0,-3.4102 -0.77597,-12.91628 -1.91958,-16.76378 -1.14361,-3.84759 -3.05367,-7.39131 -3.05367,-7.39131 0,0 0.65674,-0.3898 0.21944,-1.85049 -0.4373,-1.4606 -1.42741,-3.12115 -4.32495,-4.40724 -2.89753,-1.28597 -5.29606,-2.11097 -6.19333,-2.11097 -0.89727,0 -1.00593,0 -1.00593,0 l 1.06342,-1.45907 c 0,0 -1.30819,-1.06611 -3.49255,-1.34564 -2.18436,-0.2796 -3.76843,-0.77066 -7.8138,-0.59874 -4.04537,0.17209 -10.8928,-0.0604 -16.21894,0.75851 -5.32613,0.81922 -10.37164,1.88688 -13.56563,2.915 -3.19398,1.02808 -22.033,3.46037 -22.033,3.46037 l -20.08391,25.83676 z"
         id="path7-8"
         inkscape:label="leg_right" /><path
         style="display:inline;fill:#c62a11;fill-opacity:1;stroke-width:0.401042"
         d="m 148.00508,47.775861 c 0,0 8.99216,7.67121 12.42676,6.244 3.43462,-1.42717 7.35084,-0.93391 9.84253,1.42241 2.4916,2.35629 2.48449,-5.44388 16.81507,-5.5108 14.33057,-0.0669 5.90201,1.87714 5.90201,1.87714 0,0 19.69775,-26.106907 39.68621,-29.64503 19.98847,-3.538175 4.60683,-4.243133 13.44837,-4.606113 8.84159,-0.362949 17.46453,0.139263 21.67211,3.062135 4.20759,2.922881 12.4899,8.79439 12.4899,8.79439 0,0 -8.91471,-2.184771 -10.37719,0.201341 -1.46253,2.386101 -1.51426,1.659215 -1.51426,1.659215 0,0 -1.88259,-3.77888 -4.15008,-2.357253 -2.2675,1.421651 -2.27572,3.772886 -2.27572,3.772886 0,0 -4.84092,-1.88029 -5.95467,-0.766974 -1.11377,1.113339 -1.68559,3.282125 -1.68559,3.282125 0,0 -6.44273,-3.126202 -7.18289,-1.373238 -0.74017,1.752995 -1.74217,4.700294 -1.74217,4.700294 l -3.59673,-1.567816 -2.72237,4.736108 -3.90774,-1.084658 -2.02679,4.437278 -5.02166,-0.21701 -0.24727,4.60614 c 0,0 -3.12822,0.0199 -3.38198,2.13952 -0.25382,2.11963 0.87708,3.74159 0.87708,3.74159 0,0 -2.06511,-0.0193 -2.79168,1.9149 -0.72652,1.93412 -0.65465,2.84236 -0.65465,2.84236 0,0 1.99922,-1.34328 3.3279,-0.56423 1.32868,0.77905 1.35293,1.32288 1.35293,1.32288 0,0 2.6595,-2.28993 3.65933,-2.5367 0.99991,-0.24675 2.66215,-0.12087 2.66215,-0.12087 l 1.4698,-4.28346 2.17334,1.69156 1.72598,-3.14121 3.01352,0.62298 1.47034,-3.76828 3.67966,-0.26195 0.62512,-4.9929 4.42481,0.0752 1.24339,-4.144483 c 0,0 1.82996,0.410226 2.75342,-0.868752 0.92347,-1.278993 0.84679,-2.355995 0.84679,-2.355995 0,0 5.1959,-1.426332 6.36871,-2.745487 1.17284,-1.319159 3.47651,-3.684205 3.47651,-3.684205 0,0 -0.81051,9.40314 -3.82577,12.612992 -3.0153,3.20988 -9.37153,12.49475 -15.87755,16.36643 -6.50604,3.87169 -21.76564,14.41327 -21.76564,14.41327 0,0 0.44701,3.30517 -2.74325,4.79756 -3.19031,1.49239 -7.74716,4.53521 -12.99499,4.30831 -5.24791,-0.22697 -12.46284,-0.59927 -12.46284,-0.59927 l -2.17022,-5.10966 -0.52072,-0.54392 c 0,0 -5.46662,5.07381 -10.86097,4.20916 -5.39442,-0.86463 -11.49546,-1.68837 -12.66254,-3.77021 -1.16705,-2.08185 -2.31954,-4.24279 -2.31954,-4.24279 0,0 -1.82134,1.33499 -5.03899,0.59502 -3.2177,-0.73995 -7.62579,-2.90469 -8.84486,-4.81375 -1.21908,-1.90903 -3.15566,-3.07618 -3.15566,-3.07618 0,0 -7.07489,-4.63697 -8.8185,-6.84906 -1.74357,-2.21204 -5.70488,-6.66815 -6.4264,-9.69798 -0.72147,-3.02983 -2.95141,-7.37362 -2.06202,-10.806435 0.88938,-3.432845 0.79202,-4.51631 0.79202,-4.51631 l 3.38141,2.623679 c 0,0 1.10574,3.66655 2.76649,3.669735 1.66083,0.0031 2.32188,0.02189 2.32188,0.02189 0,0 2.20925,5.054662 5.08847,7.858372 z"
         id="path6-6"
         inkscape:label="arm_right" /><g
         id="g7"
         inkscape:label="Box"
         transform="matrix(0.97412765,0,0,0.97412765,3.639925,-19.605407)"><path
           style="fill:#1c0f0f;fill-opacity:1;stroke-width:0.264583"
           d="M 232.33151,67.892596 244.77499,90.030003 232.3317,87.114995 Z"
           id="path9"
           transform="matrix(1.0265595,0,0,1.0265595,-3.7365996,20.126117)"
           inkscape:label="back_right_flap" /><path
           sodipodi:type="star"
           style="fill:#1e1010;fill-opacity:1;stroke-width:0.264583"
           id="path1"
           inkscape:flatsided="true"
           sodipodi:sides="6"
           sodipodi:cx="114.09005"
           sodipodi:cy="106.70549"
           sodipodi:r1="106.10626"
           sodipodi:r2="91.890724"
           sodipodi:arg1="0.52359878"
           sodipodi:arg2="1.0471976"
           inkscape:rounded="0"
           inkscape:randomized="0"
           d="m 205.98077,159.75862 -91.89072,53.05313 -91.890719,-53.05313 0,-106.106261 L 114.09005,0.59922791 205.98077,53.652359 Z"
           inkscape:transform-center-x="1.437355e-06"
           inkscape:transform-center-y="-1.3443211e-06"
           transform="translate(28.78495,36.16951)"
           inkscape:label="base" /><path
           id="path2"
           style="display:inline;fill:#693939;fill-opacity:1;stroke-width:0.264583"
           d="M 142.875,36.768815 50.984485,89.821908 142.875,142.875 234.76552,89.821908 Z"
           inkscape:label="back_left" /><path
           style="fill:#422323;fill-opacity:1;stroke-width:0.264583"
           d="M 142.875,142.875 V 248.98126 L 234.76571,195.92813 234.76552,89.821908 142.875,142.875"
           id="path3"
           inkscape:label="right_side" /></g><path
         style="display:inline;fill:#7f4545;fill-opacity:1;stroke-width:0.264583"
         d="M 142.81841,106.65251 131.62888,113.11279 53.30532,67.892596 142.81841,16.212112 Z"
         id="path11"
         inkscape:label="back_left_inner" /><path
         style="display:inline;fill:#ed452a;fill-opacity:1;stroke-width:0.401042"
         d="m 94.709262,133.28713 c 0,0 7.061908,9.47819 10.727848,8.85018 3.66593,-0.62797 7.37452,0.7235 9.28007,3.57474 1.90548,2.85121 3.63247,-4.75538 17.61937,-1.63504 13.98689,3.12038 5.33706,3.14216 5.33706,3.14216 0,0 25.00831,-21.07503 45.28316,-20.08132 20.27487,0.99366 5.43479,-3.11289 14.1358,-1.50138 8.70105,1.61156 16.99659,4.01803 20.44917,7.80309 3.45258,3.78508 10.22247,11.35078 10.22247,11.35078 0,0 -8.206,-4.11178 -10.16232,-2.11048 -1.95634,2.00129 -1.8452,1.2811 -1.8452,1.2811 0,0 -0.99546,-4.10282 -3.52225,-3.22081 -2.52678,0.88203 -3.05746,3.1726 -3.05746,3.1726 0,0 -4.30182,-2.90935 -5.63519,-2.07146 -1.33339,0.8379 -2.37301,2.82531 -2.37301,2.82531 0,0 -5.58659,-4.48017 -6.69791,-2.93559 -1.11134,1.5446 -2.74342,4.19542 -2.74342,4.19542 l -3.15823,-2.32812 -3.70706,4.01243 -3.56885,-1.92618 -2.96246,3.87572 -4.84778,-1.32786 -1.265,4.43592 c 0,0 -3.05436,-0.67601 -3.77296,1.33419 -0.71866,2.01019 0.0234,3.84296 0.0234,3.84296 0,0 -2.00916,-0.47787 -3.1475,1.2464 -1.13829,1.72424 -1.27011,2.62573 -1.27011,2.62573 0,0 2.2478,-0.86526 3.37006,0.18965 1.12226,1.05491 1.02501,1.59054 1.02501,1.59054 0,0 3.102,-1.64145 4.13167,-1.6598 1.02974,-0.0183 2.62241,0.47394 2.62241,0.47394 l 2.38521,-3.84955 1.74294,2.13234 2.38107,-2.67893 2.79963,1.27728 2.27122,-3.34716 3.64582,0.56257 1.71937,-4.72901 4.29738,1.05694 2.13358,-3.7644 c 0,0 1.69298,0.80676 2.87764,-0.23495 1.18468,-1.04171 1.34933,-2.10881 1.34933,-2.10881 0,0 5.38296,-0.23562 6.81967,-1.26106 1.43672,-1.02544 4.2085,-2.81922 4.2085,-2.81922 0,0 -2.88049,8.9877 -6.53384,11.44696 -3.65339,2.45928 -11.91455,10.0989 -19.11844,12.42747 -7.20392,2.32856 -24.42505,9.21428 -24.42505,9.21428 0,0 -0.29888,3.32183 -3.74107,4.06771 -3.44223,0.74586 -8.56147,2.6996 -13.62757,1.31181 -5.06614,-1.38786 -12.01779,-3.35467 -12.01779,-3.35467 l -0.98008,-5.46425 -0.38678,-0.64606 c 0,0 -6.45772,3.73167 -11.52491,1.68951 -5.06723,-2.04214 -10.83252,-4.20149 -11.50761,-6.49067 -0.67508,-2.2892 -1.31837,-4.65225 -1.31837,-4.65225 0,0 -2.07252,0.89671 -5.04518,-0.54 -2.9727,-1.43672 -6.789298,-4.52719 -7.553498,-6.65947 -0.764215,-2.13227 -2.392887,-3.70071 -2.392887,-3.70071 0,0 -5.867097,-6.09365 -7.075345,-8.63798 -1.208241,-2.54428 -4.079864,-7.76948 -4.10983,-10.88388 -0.02995,-3.11441 -1.238436,-7.84522 0.391789,-10.99444 1.630232,-3.14924 1.776153,-4.22725 1.776153,-4.22725 l 2.713571,3.3097 c 0,0 0.26302,3.82061 1.88152,4.19289 1.618575,0.37223 2.258912,0.53748 2.258912,0.53748 0,0 1.03036,5.4193 3.214293,8.79289 z"
         id="path6"
         inkscape:label="arm_left" /><path
         style="display:inline;fill:#3a1f1f;fill-opacity:1;stroke-width:0.264583"
         d="M 142.81841,119.57308 127.7494,152.16286 42.607507,103.00617 53.305122,67.892559 Z"
         id="path8"
         inkscape:label="left_flap" /><path
         style="display:inline;fill:#3a1f1f;fill-opacity:1;stroke-width:0.264583"
         d="m 142.81841,119.57308 15.06901,32.58978 85.14189,-49.15669 -10.69761,-35.113607 z"
         id="path8-0"
         inkscape:label="right_flap" /><path
         style="display:inline;fill:#562f2f;fill-opacity:1;stroke-width:0.264583"
         d="m 142.81841,16.212112 v 90.440398 l 11.18954,6.46028 78.32356,-45.220194 z"
         id="path10"
         inkscape:label="back_right_inner" /></g></g></svg>
